<svg 
 xmlns="http://www.w3.org/2000/svg"
 xmlns:xlink="http://www.w3.org/1999/xlink"
 width="809px" height="635px">
<path fill-rule="evenodd"  stroke="rgb(36, 38, 113)" stroke-width="2px" stroke-linecap="butt" stroke-linejoin="miter" fill="rgb(255, 142, 162)"
 d="M461.619,183.927 L449.619,220.994 L39.624,212.980 L42.624,52.687 L461.619,183.927 Z"/>
<path fill-rule="evenodd"  stroke="rgb(36, 38, 113)" stroke-width="2px" stroke-linecap="butt" stroke-linejoin="miter" fill="rgb(255, 253, 128)"
 d="M2.624,2.596 L453.619,150.866 L462.619,183.927 L41.624,111.795 L2.624,2.596 Z"/>
<path fill-rule="evenodd"  stroke="rgb(36, 38, 113)" stroke-width="2px" stroke-linecap="butt" stroke-linejoin="miter" fill="rgb(255, 142, 162)"
 d="M506.479,256.928 L474.480,340.802 L91.490,501.562 L60.491,259.923 L506.479,256.928 Z"/>
<path fill-rule="evenodd"  stroke="rgb(36, 38, 113)" stroke-width="2px" stroke-linecap="butt" stroke-linejoin="miter" fill="rgb(255, 253, 128)"
 d="M71.490,178.46 L483.480,208.999 L506.479,255.929 L25.492,306.853 L71.490,178.46 Z"/>
<path fill-rule="evenodd"  stroke="rgb(36, 38, 113)" stroke-width="2px" stroke-linecap="butt" stroke-linejoin="miter" fill="rgb(255, 142, 162)"
 d="M169.104,595.761 L589.850,335.59 L588.850,602.753 L414.956,622.730 L169.104,595.761 Z"/>
<path fill-rule="evenodd"  stroke="rgb(36, 38, 113)" stroke-width="2px" stroke-linecap="butt" stroke-linejoin="miter" fill="rgb(255, 253, 128)"
 d="M76.160,419.962 L521.891,279.123 L589.850,335.59 L308.20,582.776 L108.141,590.767 L76.160,419.962 Z"/>
<path fill-rule="evenodd"  stroke="rgb(36, 38, 113)" stroke-width="2px" stroke-linecap="butt" stroke-linejoin="miter" fill="rgb(255, 142, 162)"
 d="M705.780,620.732 L748.754,389.996 L805.719,627.724 L705.780,620.732 Z"/>
<path fill-rule="evenodd"  stroke="rgb(36, 38, 113)" stroke-width="2px" stroke-linecap="butt" stroke-linejoin="miter" fill="rgb(255, 253, 128)"
 d="M473.920,631.720 L630.825,360.31 L748.754,387.0 L756.749,591.765 L473.920,631.720 Z"/>
</svg>