<svg 
 xmlns="http://www.w3.org/2000/svg"
 xmlns:xlink="http://www.w3.org/1999/xlink"
 width="1859px" height="782px">
<path fill-rule="evenodd"  stroke="rgb(18, 20, 62)" stroke-width="4px" stroke-linecap="butt" stroke-linejoin="miter" fill="rgb(139, 209, 70)"
 d="M3.999,118.406 C3.999,118.406 120.824,7.755 260.0,4.406 C399.175,1.57 615.746,124.671 722.999,132.406 C830.253,140.140 915.83,78.471 989.0,83.406 C1062.916,88.340 1199.877,136.291 1277.999,217.406 C1356.122,298.521 1139.0,345.406 1139.0,345.406 L780.0,382.406 L324.999,398.406 L3.999,118.406 Z"/>
<path fill-rule="evenodd"  stroke="rgb(18, 20, 62)" stroke-width="4px" stroke-linecap="butt" stroke-linejoin="miter" fill="rgb(112, 193, 90)"
 d="M720.999,295.406 C720.999,295.406 898.734,200.594 1000.0,201.406 C1101.390,202.218 1199.453,276.381 1314.0,275.406 C1428.546,274.430 1546.999,253.406 1546.999,253.406 L1790.0,328.406 L1827.0,300.406 L1816.0,472.406 L1469.0,528.406 L881.0,493.406 L720.999,295.406 Z"/>
<path fill-rule="evenodd"  stroke="rgb(18, 20, 62)" stroke-width="4px" stroke-linecap="butt" stroke-linejoin="miter" fill="rgb(98, 181, 126)"
 d="M212.578,347.93 C212.578,347.93 539.180,220.367 639.578,247.93 C739.975,273.820 932.501,418.196 1043.578,415.93 C1220.694,410.145 1275.801,334.411 1450.578,327.93 C1625.355,319.776 1771.438,477.904 1788.578,482.93 C1805.718,486.282 1852.578,727.93 1852.578,727.93 L465.578,775.93 L65.578,666.93 L212.578,347.93 Z"/>
</svg>