<svg 
 xmlns="http://www.w3.org/2000/svg"
 xmlns:xlink="http://www.w3.org/1999/xlink"
 width="1805px" height="678px">
<path fill-rule="evenodd"  stroke="rgb(18, 20, 62)" stroke-width="4px" stroke-linecap="butt" stroke-linejoin="miter" fill="rgb(139, 209, 70)"
 d="M141.999,118.999 C141.999,118.999 258.824,8.348 397.999,4.999 C537.175,1.651 753.746,125.265 860.999,132.999 C968.253,140.734 1053.83,79.65 1127.0,84.0 C1200.916,88.934 1337.877,136.885 1415.999,218.0 C1494.122,299.114 1277.0,346.0 1277.0,346.0 L917.999,383.0 L463.0,399.0 L141.999,118.999 Z"/>
<path fill-rule="evenodd"  stroke="rgb(18, 20, 62)" stroke-width="4px" stroke-linecap="butt" stroke-linejoin="miter" fill="rgb(112, 193, 90)"
 d="M692.0,206.0 C692.0,206.0 869.734,111.188 971.0,112.0 C1072.390,112.812 1170.453,186.975 1284.999,186.0 C1399.546,185.24 1517.999,164.0 1517.999,164.0 L1760.999,239.0 L1797.999,211.0 L1786.999,382.999 L1440.0,438.999 L852.0,403.999 L692.0,206.0 Z"/>
<path fill-rule="evenodd"  stroke="rgb(18, 20, 62)" stroke-width="4px" stroke-linecap="butt" stroke-linejoin="miter" fill="rgb(98, 181, 126)"
 d="M151.999,244.0 C151.999,244.0 478.602,117.273 579.0,144.0 C679.397,170.726 871.923,315.103 983.0,311.999 C1160.115,307.52 1215.222,231.317 1390.0,224.0 C1564.777,216.682 1710.860,374.811 1727.999,379.0 C1745.139,383.188 1792.0,623.999 1792.0,623.999 L405.0,671.999 L4.999,562.999 L151.999,244.0 Z"/>
</svg>