<svg id="POLOCO" xmlns="http://www.w3.org/2000/svg" viewBox="0 0 777.09 391.15"><defs><style>.cls-1{fill:#f69779;}.cls-2{fill:#f9ad81;}.cls-3{fill:#fdc68a;}.cls-4{fill:#a3d39c;}.cls-5{fill:#c4df9b;}.cls-6{fill:#fff899;}.cls-7{stroke:#fff8ff;}.cls-7,.cls-8{stroke-miterlimit:10;stroke-width:8px;}.cls-8{stroke:#fffdff;}</style></defs><g id="Calque_3" data-name="Calque 3"><g id="P"><polygon class="cls-1" points="0.12 196.1 384.11 0.66 119.3 316.69 0.12 196.1"/><polygon class="cls-1" points="36.19 387.15 384.11 0.66 36.19 199.57 36.19 387.15"/></g><g id="O"><polygon class="cls-2" points="283.13 295.38 384.54 0 163.36 222.77 283.13 295.38"/></g><g id="L"><polygon class="cls-3" points="300.15 141.91 382.62 1.44 349.68 336.99 300.15 141.91"/></g><g id="O-2" data-name="O"><polygon class="cls-4" points="660.73 320.61 382.62 1.44 744.65 207.24 660.73 320.61"/></g><g id="C"><polygon class="cls-5" points="527.95 300.68 388.3 1.44 632.37 219.22 527.95 300.68"/><polygon class="cls-5" points="632.37 313.54 383.14 1.44 516.47 295.38 632.37 313.54"/></g><g id="O-3" data-name="O"><polygon class="cls-6" points="360.8 261.52 383.14 1.44 497.15 240.97 360.8 261.52"/></g></g><g id="Calque_2" data-name="Calque 2"><circle class="cls-7" cx="218.73" cy="266.49" r="66.7"/><circle class="cls-7" cx="431.02" cy="266.27" r="66.7"/><circle class="cls-7" cx="706.39" cy="266.27" r="66.7"/><rect class="cls-7" x="304" y="145.39" width="41.93" height="187.58"/><path class="cls-8" d="M285.64,438V625.57h32.19V561.78A66.7,66.7,0,1,0,352.34,438Z" transform="translate(-281.64 -238.42)"/><path class="cls-7" d="M861.59,504.91l47.27-47.27a66.7,66.7,0,1,0-.22,94.32Z" transform="translate(-281.64 -238.42)"/></g></svg>