<svg 
 xmlns="http://www.w3.org/2000/svg"
 xmlns:xlink="http://www.w3.org/1999/xlink"
 width="69px" height="671px">
<path fill-rule="evenodd"  stroke="rgb(18, 20, 62)" stroke-width="2px" stroke-linecap="butt" stroke-linejoin="miter" fill="rgb(67, 163, 221)"
 d="M1.999,643.39 L1.999,660.13 C1.999,660.13 9.325,668.1 33.0,668.1 C56.674,668.1 66.0,661.12 66.0,661.12 L66.0,640.44 L1.999,643.39 Z"/>
<path fill-rule="evenodd"  stroke="rgb(18, 20, 62)" stroke-width="2px" stroke-linecap="butt" stroke-linejoin="miter" fill="rgb(169, 255, 254)"
 d="M34.0,629.61 C51.673,629.61 66.0,634.425 66.0,641.42 C66.0,647.660 51.673,653.24 34.0,653.24 C16.326,653.24 1.999,647.660 1.999,641.42 C1.999,634.425 16.326,629.61 34.0,629.61 Z"/>
<path fill-rule="evenodd"  stroke="rgb(18, 20, 62)" stroke-width="2px" stroke-linecap="butt" stroke-linejoin="miter" fill="rgb(67, 163, 221)"
 d="M21.999,589.122 L21.999,641.42 C21.999,641.42 28.54,643.39 34.0,643.39 C39.945,643.39 46.0,641.42 46.0,641.42 L46.0,589.122 L21.999,589.122 Z"/>
<path fill-rule="evenodd"  stroke="rgb(18, 20, 62)" stroke-width="2px" stroke-linecap="butt" stroke-linejoin="miter" fill="rgb(67, 163, 221)"
 d="M1.999,597.625 L1.999,614.599 C1.999,614.599 9.325,622.586 33.0,622.586 C56.674,622.586 66.0,615.597 66.0,615.597 L66.0,594.629 L1.999,597.625 Z"/>
<path fill-rule="evenodd"  stroke="rgb(18, 20, 62)" stroke-width="2px" stroke-linecap="butt" stroke-linejoin="miter" fill="rgb(169, 255, 254)"
 d="M34.0,583.646 C51.673,583.646 66.0,589.10 66.0,595.628 C66.0,602.245 51.673,607.609 34.0,607.609 C16.326,607.609 1.999,602.245 1.999,595.628 C1.999,589.10 16.326,583.646 34.0,583.646 Z"/>
<path fill-rule="evenodd"  stroke="rgb(18, 20, 62)" stroke-width="2px" stroke-linecap="butt" stroke-linejoin="miter" fill="rgb(67, 163, 221)"
 d="M21.999,543.707 L21.999,595.628 C21.999,595.628 28.54,597.625 34.0,597.625 C39.945,597.625 46.0,595.628 46.0,595.628 L46.0,543.707 L21.999,543.707 Z"/>
<path fill-rule="evenodd"  stroke="rgb(18, 20, 62)" stroke-width="2px" stroke-linecap="butt" stroke-linejoin="miter" fill="rgb(67, 163, 221)"
 d="M1.999,554.690 L1.999,571.664 C1.999,571.664 9.325,579.652 33.0,579.652 C56.674,579.652 66.0,572.663 66.0,572.663 L66.0,551.695 L1.999,554.690 Z"/>
<path fill-rule="evenodd"  stroke="rgb(18, 20, 62)" stroke-width="2px" stroke-linecap="butt" stroke-linejoin="miter" fill="rgb(169, 255, 254)"
 d="M34.0,540.712 C51.673,540.712 66.0,546.76 66.0,552.693 C66.0,559.311 51.673,564.675 34.0,564.675 C16.326,564.675 1.999,559.311 1.999,552.693 C1.999,546.76 16.326,540.712 34.0,540.712 Z"/>
<path fill-rule="evenodd"  stroke="rgb(18, 20, 62)" stroke-width="2px" stroke-linecap="butt" stroke-linejoin="miter" fill="rgb(67, 163, 221)"
 d="M21.999,500.773 L21.999,552.693 C21.999,552.693 28.54,554.690 34.0,554.690 C39.945,554.690 46.0,552.693 46.0,552.693 L46.0,500.773 L21.999,500.773 Z"/>
<path fill-rule="evenodd"  stroke="rgb(18, 20, 62)" stroke-width="2px" stroke-linecap="butt" stroke-linejoin="miter" fill="rgb(67, 163, 221)"
 d="M1.999,506.249 L1.999,523.223 C1.999,523.223 9.325,531.211 33.0,531.211 C56.674,531.211 66.0,524.221 66.0,524.221 L66.0,503.253 L1.999,506.249 Z"/>
<path fill-rule="evenodd"  stroke="rgb(18, 20, 62)" stroke-width="2px" stroke-linecap="butt" stroke-linejoin="miter" fill="rgb(169, 255, 254)"
 d="M34.0,492.270 C51.673,492.270 66.0,497.635 66.0,504.252 C66.0,510.869 51.673,516.234 34.0,516.234 C16.326,516.234 1.999,510.869 1.999,504.252 C1.999,497.635 16.326,492.270 34.0,492.270 Z"/>
<path fill-rule="evenodd"  stroke="rgb(18, 20, 62)" stroke-width="2px" stroke-linecap="butt" stroke-linejoin="miter" fill="rgb(67, 163, 221)"
 d="M21.999,452.331 L21.999,504.252 C21.999,504.252 28.54,506.249 34.0,506.249 C39.945,506.249 46.0,504.252 46.0,504.252 L46.0,452.331 L21.999,452.331 Z"/>
<path fill-rule="evenodd"  stroke="rgb(18, 20, 62)" stroke-width="2px" stroke-linecap="butt" stroke-linejoin="miter" fill="rgb(67, 163, 221)"
 d="M1.999,460.834 L1.999,477.808 C1.999,477.808 9.325,485.796 33.0,485.796 C56.674,485.796 66.0,478.807 66.0,478.807 L66.0,457.839 L1.999,460.834 Z"/>
<path fill-rule="evenodd"  stroke="rgb(18, 20, 62)" stroke-width="2px" stroke-linecap="butt" stroke-linejoin="miter" fill="rgb(169, 255, 254)"
 d="M34.0,446.855 C51.673,446.855 66.0,452.220 66.0,458.837 C66.0,465.454 51.673,470.819 34.0,470.819 C16.326,470.819 1.999,465.454 1.999,458.837 C1.999,452.220 16.326,446.855 34.0,446.855 Z"/>
<path fill-rule="evenodd"  stroke="rgb(18, 20, 62)" stroke-width="2px" stroke-linecap="butt" stroke-linejoin="miter" fill="rgb(67, 163, 221)"
 d="M21.999,406.917 L21.999,458.837 C21.999,458.837 28.54,460.834 34.0,460.834 C39.945,460.834 46.0,458.837 46.0,458.837 L46.0,406.917 L21.999,406.917 Z"/>
<path fill-rule="evenodd"  stroke="rgb(18, 20, 62)" stroke-width="2px" stroke-linecap="butt" stroke-linejoin="miter" fill="rgb(67, 163, 221)"
 d="M1.999,417.900 L1.999,434.874 C1.999,434.874 9.325,442.862 33.0,442.862 C56.674,442.862 66.0,435.872 66.0,435.872 L66.0,414.904 L1.999,417.900 Z"/>
<path fill-rule="evenodd"  stroke="rgb(18, 20, 62)" stroke-width="2px" stroke-linecap="butt" stroke-linejoin="miter" fill="rgb(169, 255, 254)"
 d="M34.0,403.921 C51.673,403.921 66.0,409.286 66.0,415.903 C66.0,422.520 51.673,427.885 34.0,427.885 C16.326,427.885 1.999,422.520 1.999,415.903 C1.999,409.286 16.326,403.921 34.0,403.921 Z"/>
<path fill-rule="evenodd"  stroke="rgb(18, 20, 62)" stroke-width="2px" stroke-linecap="butt" stroke-linejoin="miter" fill="rgb(67, 163, 221)"
 d="M21.999,363.982 L21.999,415.903 C21.999,415.903 28.54,417.900 34.0,417.900 C39.945,417.900 46.0,415.903 46.0,415.903 L46.0,363.982 L21.999,363.982 Z"/>
<path fill-rule="evenodd"  stroke="rgb(18, 20, 62)" stroke-width="2px" stroke-linecap="butt" stroke-linejoin="miter" fill="rgb(67, 163, 221)"
 d="M1.999,373.42 L1.999,390.14 C1.999,390.14 9.325,398.1 33.0,398.1 C56.674,398.1 66.0,391.13 66.0,391.13 L66.0,370.47 L1.999,373.42 Z"/>
<path fill-rule="evenodd"  stroke="rgb(18, 20, 62)" stroke-width="2px" stroke-linecap="butt" stroke-linejoin="miter" fill="rgb(169, 255, 254)"
 d="M34.0,359.65 C51.673,359.65 66.0,364.429 66.0,371.45 C66.0,377.662 51.673,383.26 34.0,383.26 C16.326,383.26 1.999,377.662 1.999,371.45 C1.999,364.429 16.326,359.65 34.0,359.65 Z"/>
<path fill-rule="evenodd"  stroke="rgb(18, 20, 62)" stroke-width="2px" stroke-linecap="butt" stroke-linejoin="miter" fill="rgb(67, 163, 221)"
 d="M21.999,319.130 L21.999,371.45 C21.999,371.45 28.54,373.42 34.0,373.42 C39.945,373.42 46.0,371.45 46.0,371.45 L46.0,319.130 L21.999,319.130 Z"/>
<path fill-rule="evenodd"  stroke="rgb(18, 20, 62)" stroke-width="2px" stroke-linecap="butt" stroke-linejoin="miter" fill="rgb(67, 163, 221)"
 d="M1.999,327.632 L1.999,344.604 C1.999,344.604 9.325,352.591 33.0,352.591 C56.674,352.591 66.0,345.602 66.0,345.602 L66.0,324.637 L1.999,327.632 Z"/>
<path fill-rule="evenodd"  stroke="rgb(18, 20, 62)" stroke-width="2px" stroke-linecap="butt" stroke-linejoin="miter" fill="rgb(169, 255, 254)"
 d="M34.0,313.655 C51.673,313.655 66.0,319.18 66.0,325.635 C66.0,332.252 51.673,337.615 34.0,337.615 C16.326,337.615 1.999,332.252 1.999,325.635 C1.999,319.18 16.326,313.655 34.0,313.655 Z"/>
<path fill-rule="evenodd"  stroke="rgb(18, 20, 62)" stroke-width="2px" stroke-linecap="butt" stroke-linejoin="miter" fill="rgb(67, 163, 221)"
 d="M21.999,273.720 L21.999,325.635 C21.999,325.635 28.54,327.632 34.0,327.632 C39.945,327.632 46.0,325.635 46.0,325.635 L46.0,273.720 L21.999,273.720 Z"/>
<path fill-rule="evenodd"  stroke="rgb(18, 20, 62)" stroke-width="2px" stroke-linecap="butt" stroke-linejoin="miter" fill="rgb(67, 163, 221)"
 d="M1.999,284.702 L1.999,301.674 C1.999,301.674 9.325,309.661 33.0,309.661 C56.674,309.661 66.0,302.673 66.0,302.673 L66.0,281.707 L1.999,284.702 Z"/>
<path fill-rule="evenodd"  stroke="rgb(18, 20, 62)" stroke-width="2px" stroke-linecap="butt" stroke-linejoin="miter" fill="rgb(169, 255, 254)"
 d="M34.0,270.725 C51.673,270.725 66.0,276.89 66.0,282.705 C66.0,289.322 51.673,294.686 34.0,294.686 C16.326,294.686 1.999,289.322 1.999,282.705 C1.999,276.89 16.326,270.725 34.0,270.725 Z"/>
<path fill-rule="evenodd"  stroke="rgb(18, 20, 62)" stroke-width="2px" stroke-linecap="butt" stroke-linejoin="miter" fill="rgb(67, 163, 221)"
 d="M21.999,230.790 L21.999,282.705 C21.999,282.705 28.54,284.702 34.0,284.702 C39.945,284.702 46.0,282.705 46.0,282.705 L46.0,230.790 L21.999,230.790 Z"/>
<path fill-rule="evenodd"  stroke="rgb(18, 20, 62)" stroke-width="2px" stroke-linecap="butt" stroke-linejoin="miter" fill="rgb(67, 163, 221)"
 d="M1.999,236.265 L1.999,253.238 C1.999,253.238 9.325,261.225 33.0,261.225 C56.674,261.225 66.0,254.236 66.0,254.236 L66.0,233.270 L1.999,236.265 Z"/>
<path fill-rule="evenodd"  stroke="rgb(18, 20, 62)" stroke-width="2px" stroke-linecap="butt" stroke-linejoin="miter" fill="rgb(169, 255, 254)"
 d="M34.0,222.288 C51.673,222.288 66.0,227.652 66.0,234.269 C66.0,240.885 51.673,246.249 34.0,246.249 C16.326,246.249 1.999,240.885 1.999,234.269 C1.999,227.652 16.326,222.288 34.0,222.288 Z"/>
<path fill-rule="evenodd"  stroke="rgb(18, 20, 62)" stroke-width="2px" stroke-linecap="butt" stroke-linejoin="miter" fill="rgb(67, 163, 221)"
 d="M21.999,182.354 L21.999,234.269 C21.999,234.269 28.54,236.265 34.0,236.265 C39.945,236.265 46.0,234.269 46.0,234.269 L46.0,182.354 L21.999,182.354 Z"/>
<path fill-rule="evenodd"  stroke="rgb(18, 20, 62)" stroke-width="2px" stroke-linecap="butt" stroke-linejoin="miter" fill="rgb(67, 163, 221)"
 d="M1.999,190.855 L1.999,207.828 C1.999,207.828 9.325,215.815 33.0,215.815 C56.674,215.815 66.0,208.826 66.0,208.826 L66.0,187.860 L1.999,190.855 Z"/>
<path fill-rule="evenodd"  stroke="rgb(18, 20, 62)" stroke-width="2px" stroke-linecap="butt" stroke-linejoin="miter" fill="rgb(169, 255, 254)"
 d="M34.0,176.878 C51.673,176.878 66.0,182.242 66.0,188.859 C66.0,195.475 51.673,200.839 34.0,200.839 C16.326,200.839 1.999,195.475 1.999,188.859 C1.999,182.242 16.326,176.878 34.0,176.878 Z"/>
<path fill-rule="evenodd"  stroke="rgb(18, 20, 62)" stroke-width="2px" stroke-linecap="butt" stroke-linejoin="miter" fill="rgb(67, 163, 221)"
 d="M21.999,136.943 L21.999,188.859 C21.999,188.859 28.54,190.855 34.0,190.855 C39.945,190.855 46.0,188.859 46.0,188.859 L46.0,136.943 L21.999,136.943 Z"/>
<path fill-rule="evenodd"  stroke="rgb(18, 20, 62)" stroke-width="2px" stroke-linecap="butt" stroke-linejoin="miter" fill="rgb(67, 163, 221)"
 d="M1.999,147.925 L1.999,164.898 C1.999,164.898 9.325,172.885 33.0,172.885 C56.674,172.885 66.0,165.896 66.0,165.896 L66.0,144.930 L1.999,147.925 Z"/>
<path fill-rule="evenodd"  stroke="rgb(18, 20, 62)" stroke-width="2px" stroke-linecap="butt" stroke-linejoin="miter" fill="rgb(169, 255, 254)"
 d="M34.0,133.948 C51.673,133.948 66.0,139.312 66.0,145.929 C66.0,152.545 51.673,157.909 34.0,157.909 C16.326,157.909 1.999,152.545 1.999,145.929 C1.999,139.312 16.326,133.948 34.0,133.948 Z"/>
<path fill-rule="evenodd"  stroke="rgb(18, 20, 62)" stroke-width="2px" stroke-linecap="butt" stroke-linejoin="miter" fill="rgb(67, 163, 221)"
 d="M21.999,94.14 L21.999,145.929 C21.999,145.929 28.54,147.925 34.0,147.925 C39.945,147.925 46.0,145.929 46.0,145.929 L46.0,94.14 L21.999,94.14 Z"/>
<path fill-rule="evenodd"  stroke="rgb(18, 20, 62)" stroke-width="2px" stroke-linecap="butt" stroke-linejoin="miter" fill="rgb(67, 163, 221)"
 d="M1.999,105.265 L1.999,122.238 C1.999,122.238 9.325,130.225 33.0,130.225 C56.674,130.225 66.0,123.236 66.0,123.236 L66.0,102.270 L1.999,105.265 Z"/>
<path fill-rule="evenodd"  stroke="rgb(18, 20, 62)" stroke-width="2px" stroke-linecap="butt" stroke-linejoin="miter" fill="rgb(169, 255, 254)"
 d="M34.0,91.288 C51.673,91.288 66.0,96.652 66.0,103.269 C66.0,109.885 51.673,115.249 34.0,115.249 C16.326,115.249 1.999,109.885 1.999,103.269 C1.999,96.652 16.326,91.288 34.0,91.288 Z"/>
<path fill-rule="evenodd"  stroke="rgb(18, 20, 62)" stroke-width="2px" stroke-linecap="butt" stroke-linejoin="miter" fill="rgb(67, 163, 221)"
 d="M21.999,51.354 L21.999,103.269 C21.999,103.269 28.54,105.265 34.0,105.265 C39.945,105.265 46.0,103.269 46.0,103.269 L46.0,51.354 L21.999,51.354 Z"/>
<path fill-rule="evenodd"  stroke="rgb(18, 20, 62)" stroke-width="2px" stroke-linecap="butt" stroke-linejoin="miter" fill="rgb(67, 163, 221)"
 d="M1.999,59.855 L1.999,76.828 C1.999,76.828 9.325,84.815 33.0,84.815 C56.674,84.815 66.0,77.826 66.0,77.826 L66.0,56.860 L1.999,59.855 Z"/>
<path fill-rule="evenodd"  stroke="rgb(18, 20, 62)" stroke-width="2px" stroke-linecap="butt" stroke-linejoin="miter" fill="rgb(169, 255, 254)"
 d="M34.0,45.878 C51.673,45.878 66.0,51.242 66.0,57.859 C66.0,64.475 51.673,69.839 34.0,69.839 C16.326,69.839 1.999,64.475 1.999,57.859 C1.999,51.242 16.326,45.878 34.0,45.878 Z"/>
<path fill-rule="evenodd"  stroke="rgb(18, 20, 62)" stroke-width="2px" stroke-linecap="butt" stroke-linejoin="miter" fill="rgb(67, 163, 221)"
 d="M21.999,5.943 L21.999,57.859 C21.999,57.859 28.54,59.855 34.0,59.855 C39.945,59.855 46.0,57.859 46.0,57.859 L46.0,5.943 L21.999,5.943 Z"/>
<path fill-rule="evenodd"  stroke="rgb(18, 20, 62)" stroke-width="2px" stroke-linecap="butt" stroke-linejoin="miter" fill="rgb(67, 163, 221)"
 d="M1.999,16.925 L1.999,33.898 C1.999,33.898 9.325,41.885 33.0,41.885 C56.674,41.885 66.0,34.896 66.0,34.896 L66.0,13.930 L1.999,16.925 Z"/>
<path fill-rule="evenodd"  stroke="rgb(18, 20, 62)" stroke-width="2px" stroke-linecap="butt" stroke-linejoin="miter" fill="rgb(169, 255, 254)"
 d="M34.0,2.948 C51.673,2.948 66.0,8.312 66.0,14.929 C66.0,21.545 51.673,26.909 34.0,26.909 C16.326,26.909 1.999,21.545 1.999,14.929 C1.999,8.312 16.326,2.948 34.0,2.948 Z"/>
</svg>