<svg 
 xmlns="http://www.w3.org/2000/svg"
 xmlns:xlink="http://www.w3.org/1999/xlink"
 width="1051px" height="624px">
<path fill-rule="evenodd"  stroke="rgb(7, 3, 48)" stroke-width="2px" stroke-linecap="butt" stroke-linejoin="miter" fill="rgb(168, 64, 123)"
 d="M492.718,157.374 L492.218,187.812 C492.218,187.812 510.114,204.92 544.218,209.812 C574.909,214.960 658.873,229.32 643.218,282.812 C661.219,267.541 661.218,245.812 661.218,245.812 L638.218,207.812 L516.218,165.812 L492.718,157.374 Z"/>
<path fill-rule="evenodd"  stroke="rgb(7, 3, 48)" stroke-width="2px" stroke-linecap="butt" stroke-linejoin="miter" fill="rgb(168, 64, 123)"
 d="M759.218,603.812 C759.218,603.812 812.807,514.125 835.718,458.375 C859.516,400.468 878.718,332.374 878.718,332.374 L875.718,261.374 L653.218,548.812 L671.218,606.812 L759.218,603.812 Z"/>
<path fill-rule="evenodd"  stroke="rgb(7, 3, 48)" stroke-width="2px" stroke-linecap="butt" stroke-linejoin="miter" fill="rgb(168, 64, 123)"
 d="M794.218,179.812 C794.218,179.812 782.634,172.482 791.218,167.812 C799.802,163.142 833.83,160.617 852.218,155.812 C867.364,152.9 963.35,129.345 979.218,109.812 C995.402,90.279 990.218,85.812 990.218,85.812 C990.218,85.812 825.396,119.913 824.218,119.812 C823.40,119.711 749.218,150.812 749.218,150.812 L746.218,185.812 L794.218,179.812 Z"/>
<path fill-rule="evenodd"  stroke="rgb(7, 3, 48)" stroke-width="2px" stroke-linecap="butt" stroke-linejoin="miter" fill="rgb(119, 202, 254)"
 d="M412.218,603.812 L714.218,264.812 L645.218,155.812 L701.218,102.812 L1042.718,66.374 C1042.718,66.374 1004.574,85.710 999.218,87.812 C993.863,89.914 978.145,102.694 946.218,115.812 C914.715,128.756 888.830,134.985 850.218,143.812 C819.61,150.935 785.834,148.935 783.718,161.375 C781.233,175.982 811.295,186.330 832.718,197.374 C866.396,214.737 883.5,253.942 872.718,293.375 C857.914,350.126 759.11,586.447 693.718,611.374 C628.425,636.302 412.218,603.812 412.218,603.812 Z"/>
<path fill-rule="evenodd"  stroke="rgb(7, 3, 48)" stroke-width="2px" stroke-linecap="butt" stroke-linejoin="miter" fill="rgb(81, 204, 183)"
 d="M152.218,605.812 L441.218,478.812 C441.218,478.812 732.100,289.454 707.218,258.812 C682.336,228.170 593.218,159.812 593.218,159.812 C593.218,159.812 574.270,118.478 619.218,106.812 C664.167,95.146 864.718,86.375 864.718,86.375 L1010.718,68.375 L1031.218,72.812 C1031.218,72.812 969.729,103.781 896.718,116.375 C837.920,126.517 831.699,127.416 809.718,130.374 C795.839,132.243 711.828,134.59 710.718,148.375 C709.773,160.569 753.102,178.924 769.718,186.374 C794.223,197.362 849.306,233.775 820.218,303.812 C791.130,373.849 735.240,460.234 677.718,507.374 C620.196,554.515 495.562,611.123 420.218,608.812 C344.875,606.501 152.218,605.812 152.218,605.812 Z"/>
<path fill-rule="evenodd"  stroke="rgb(7, 3, 48)" stroke-width="2px" stroke-linecap="butt" stroke-linejoin="miter" fill="rgb(255, 254, 92)"
 d="M98.218,508.812 C98.218,508.812 682.494,358.42 676.218,288.812 C669.943,219.582 672.257,214.481 650.218,206.812 C628.179,199.143 530.69,180.114 532.218,160.812 C534.367,141.510 562.263,124.59 572.218,118.812 C582.174,113.565 736.218,93.812 736.218,93.812 C736.218,93.812 881.206,84.893 894.718,81.375 C912.293,76.798 1018.718,65.375 1018.718,65.375 L1030.218,70.812 C1030.218,70.812 1004.57,78.439 930.718,95.375 C857.659,112.246 800.34,110.246 745.718,117.374 C693.517,124.226 627.734,131.796 632.718,147.375 C637.703,162.953 692.259,173.10 719.218,187.812 C744.970,201.951 784.437,227.355 774.218,284.812 C763.999,342.269 605.711,468.418 555.718,503.375 C505.726,538.331 296.784,591.209 263.218,597.812 C229.652,604.415 98.218,508.812 98.218,508.812 Z"/>
<path fill-rule="evenodd"  stroke="rgb(7, 3, 48)" stroke-width="2px" stroke-linecap="butt" stroke-linejoin="miter" fill="rgb(248, 165, 213)"
 d="M1034.218,30.812 C1037.831,63.151 958.574,79.853 864.718,91.374 C707.360,108.418 594.579,124.622 570.218,136.812 C549.734,149.815 556.537,162.392 585.218,168.812 C614.74,175.271 682.454,195.79 703.718,220.374 C717.835,237.167 800.626,313.530 520.718,430.374 C244.914,545.506 71.218,589.812 71.218,589.812 L2.718,410.375 C2.718,410.375 615.46,398.614 646.218,267.812 C653.355,214.436 596.883,207.806 558.218,198.812 C396.165,154.909 550.983,94.450 816.718,83.374 C967.985,64.384 992.102,75.581 992.718,35.374 C993.332,-4.709 1029.478,-11.617 1034.218,30.812 Z"/>
</svg>