<svg 
 xmlns="http://www.w3.org/2000/svg"
 xmlns:xlink="http://www.w3.org/1999/xlink"
 width="1051px" height="625px">
<path fill-rule="evenodd"  stroke="rgb(7, 3, 48)" stroke-width="2px" stroke-linecap="butt" stroke-linejoin="miter" fill="rgb(168, 64, 123)"
 d="M493.0,158.0 L492.499,188.437 C492.499,188.437 510.395,204.717 544.499,210.437 C575.190,215.585 659.154,229.657 643.500,283.437 C661.500,268.166 661.500,246.437 661.500,246.437 L638.499,208.437 L516.500,166.437 L493.0,158.0 Z"/>
<path fill-rule="evenodd"  stroke="rgb(7, 3, 48)" stroke-width="2px" stroke-linecap="butt" stroke-linejoin="miter" fill="rgb(168, 64, 123)"
 d="M759.499,604.437 C759.499,604.437 813.88,514.750 836.0,459.0 C859.797,401.93 879.0,333.0 879.0,333.0 L876.0,262.0 L653.499,549.437 L671.499,607.437 L759.499,604.437 Z"/>
<path fill-rule="evenodd"  stroke="rgb(7, 3, 48)" stroke-width="2px" stroke-linecap="butt" stroke-linejoin="miter" fill="rgb(168, 64, 123)"
 d="M794.499,180.437 C794.499,180.437 782.916,173.107 791.500,168.437 C800.83,163.767 833.364,161.242 852.500,156.437 C867.645,152.634 963.316,129.970 979.499,110.437 C995.683,90.904 990.499,86.437 990.499,86.437 C990.499,86.437 825.677,120.538 824.500,120.437 C823.322,120.336 749.500,151.437 749.500,151.437 L746.500,186.437 L794.499,180.437 Z"/>
<path fill-rule="evenodd"  stroke="rgb(7, 3, 48)" stroke-width="2px" stroke-linecap="butt" stroke-linejoin="miter" fill="rgb(119, 202, 254)"
 d="M412.499,604.437 L714.499,265.437 L645.499,156.437 L701.499,103.437 L1043.0,67.0 C1043.0,67.0 1004.855,86.335 999.500,88.437 C994.144,90.539 978.426,103.319 946.500,116.437 C914.997,129.381 889.111,135.610 850.500,144.437 C819.343,151.560 786.116,149.560 783.999,162.0 C781.515,176.607 811.576,186.955 832.999,198.0 C866.677,215.362 883.286,254.567 873.0,294.0 C858.195,350.751 759.293,587.72 693.999,611.999 C628.706,636.927 412.499,604.437 412.499,604.437 Z"/>
<path fill-rule="evenodd"  stroke="rgb(7, 3, 48)" stroke-width="2px" stroke-linecap="butt" stroke-linejoin="miter" fill="rgb(81, 204, 183)"
 d="M152.499,606.437 L441.500,479.437 C441.500,479.437 732.381,290.79 707.499,259.437 C682.618,228.795 593.499,160.437 593.499,160.437 C593.499,160.437 574.551,119.103 619.500,107.437 C664.448,95.771 865.0,87.0 865.0,87.0 L1011.0,69.0 L1031.500,73.437 C1031.500,73.437 970.10,104.406 897.0,117.0 C838.201,127.142 831.980,128.41 809.999,131.0 C796.120,132.867 712.110,134.684 710.999,149.0 C710.54,161.194 753.383,179.549 770.0,187.0 C794.504,197.987 849.588,234.400 820.499,304.437 C791.411,374.474 735.521,460.859 677.999,508.0 C620.478,555.140 495.843,611.748 420.500,609.437 C345.156,607.126 152.499,606.437 152.499,606.437 Z"/>
<path fill-rule="evenodd"  stroke="rgb(7, 3, 48)" stroke-width="2px" stroke-linecap="butt" stroke-linejoin="miter" fill="rgb(255, 254, 92)"
 d="M98.500,509.437 C98.500,509.437 682.775,358.667 676.499,289.437 C670.224,220.207 672.538,215.106 650.500,207.437 C628.461,199.768 530.351,180.739 532.499,161.437 C534.648,142.135 562.544,124.684 572.499,119.437 C582.455,114.190 736.500,94.437 736.500,94.437 C736.500,94.437 881.487,85.518 895.0,82.0 C912.574,77.423 1019.0,66.0 1019.0,66.0 L1030.499,71.437 C1030.499,71.437 1004.338,79.64 930.999,96.0 C857.940,112.871 800.315,110.871 745.999,118.0 C693.798,124.851 628.15,132.421 632.999,148.0 C637.984,163.578 692.540,173.635 719.500,188.437 C745.251,202.576 784.718,227.980 774.500,285.437 C764.281,342.894 605.992,469.43 555.999,503.999 C506.7,538.956 297.66,591.834 263.500,598.437 C229.933,605.40 98.500,509.437 98.500,509.437 Z"/>
<path fill-rule="evenodd"  stroke="rgb(7, 3, 48)" stroke-width="2px" stroke-linecap="butt" stroke-linejoin="miter" fill="rgb(248, 165, 213)"
 d="M1034.499,31.437 C1038.113,63.776 958.855,80.478 865.0,91.999 C707.642,109.43 594.860,125.247 570.500,137.437 C550.16,150.440 556.818,163.17 585.499,169.437 C614.355,175.896 682.735,195.704 703.999,220.999 C718.116,237.792 800.908,314.155 520.999,430.999 C245.196,546.131 71.499,590.437 71.499,590.437 L3.0,410.999 C3.0,410.999 615.328,399.239 646.500,268.437 C653.636,215.61 597.164,208.431 558.499,199.437 C396.446,155.534 551.265,95.75 816.999,84.0 C968.266,65.9 992.384,76.206 993.0,36.0 C993.614,-4.84 1029.759,-10.992 1034.499,31.437 Z"/>
</svg>