<svg 
 xmlns="http://www.w3.org/2000/svg"
 xmlns:xlink="http://www.w3.org/1999/xlink"
 width="1060px" height="1045px">
<defs>
<radialGradient id="PSgrad_0">
  <stop offset="64%" stop-color="rgb(244,243,118)" stop-opacity="1" />
  <stop offset="76%" stop-color="rgb(182,211,177)" stop-opacity="1" />
  <stop offset="94%" stop-color="rgb(120,179,235)" stop-opacity="1" />
</radialGradient>

</defs>
<path fill-rule="evenodd"  fill="rgb(244, 243, 118)"
 d="M531.500,489.730 C549.597,489.730 564.269,504.402 564.269,522.500 C564.269,540.597 549.597,555.269 531.500,555.269 C513.402,555.269 498.730,540.597 498.730,522.500 C498.730,504.402 513.402,489.730 531.500,489.730 Z"/>
<path fill-rule="evenodd"  fill="url(#PSgrad_0)"
 d="M545.263,522.962 L545.25,519.389 L1051.471,412.968 L1059.647,535.696 L545.263,522.962 ZM542.919,514.290 L957.915,246.717 L1009.316,358.496 L544.415,517.544 L542.919,514.290 ZM538.116,510.366 L839.744,93.111 L927.831,178.958 L540.681,512.865 L538.116,510.366 ZM531.803,508.973 L606.553,29.59 L724.131,65.178 L535.226,510.25 L531.803,508.973 ZM626.312,1040.787 L503.381,1044.920 L530.73,537.87 L533.652,536.967 L626.312,1040.787 ZM376.837,20.855 L498.219,0.967 L529.565,508.772 L526.31,509.351 L376.837,20.855 ZM520.827,513.859 L214.171,115.138 L322.323,56.554 L523.975,512.153 L520.827,513.859 ZM516.564,517.550 L46.390,312.750 L110.910,208.30 L518.443,514.501 L516.564,517.550 ZM515.111,522.748 L0.503,545.683 L10.264,423.71 L515.396,519.179 L515.111,522.748 ZM515.457,528.686 L30.213,714.264 L2.410,594.448 L514.647,525.198 L515.457,528.686 ZM519.843,534.462 L155.43,901.750 L81.384,803.244 L517.698,531.595 L519.843,534.462 ZM524.786,537.633 L381.316,1036.178 L268.120,988.56 L521.490,536.233 L524.786,537.633 ZM539.865,535.801 L828.949,970.309 L717.569,1022.496 L536.623,537.320 L539.865,535.801 ZM543.812,530.680 L981.510,810.817 L900.743,903.585 L541.460,533.380 L543.812,530.680 ZM545.958,525.174 L1032.930,623.372 L990.804,738.933 L544.732,528.538 L545.958,525.174 Z"/>
</svg>